<?xml version="1.0" encoding="utf-8"?>
<!-- Generator: Adobe Illustrator 24.0.1, SVG Export Plug-In . SVG Version: 6.00 Build 0)  -->
<svg version="1.1" id="Ebene_1" xmlns="http://www.w3.org/2000/svg" xmlns:xlink="http://www.w3.org/1999/xlink" x="0px" y="0px"
	 viewBox="0 0 404.41 87.12" style="enable-background:new 0 0 404.41 87.12;" xml:space="preserve">
<style type="text/css">
	.st0{fill:#010202;}
	.st1{fill:none;stroke:#010202;stroke-width:2;stroke-miterlimit:10;}
</style>
<g>
	<path class="st0" d="M268.9,38.74v-2.88c-1.95,0.82-4.11,1.13-6.79,1.54l-5.35,0.82c-2.26,0.31-8.54,1.24-8.54,7.1
		c0,4.22,3.09,6.17,7.61,6.17C263.55,51.49,268.9,45.84,268.9,38.74 M281.66,24.23v36.73h-12.45v-7.72
		c-4.12,6.79-11.01,8.85-16.67,8.85c-8.44,0-17.08-4.53-17.08-15.74c0-13.27,12.04-15.53,16.87-16.25l10.7-1.54
		c2.06-0.31,6.17-1.13,6.17-5.56c0-4.01-4.22-5.45-8.75-5.45c-7.92,0-10.18,3.81-11.32,7.82h-12.14
		c2.06-12.34,11.42-18.31,24.59-18.31C273.22,7.05,281.66,11.78,281.66,24.23"/>
	<path class="st0" d="M119.95,39.44c0,10.7,5.66,15.74,13.37,15.74c8.23,0,13.06-5.76,13.06-15.74c0-10.6-5.66-15.64-13.37-15.64
		C124.79,23.8,119.95,29.56,119.95,39.44 M159.46,39.44c0,17.28-10.8,27.57-26.34,27.57c-15.43,0-26.23-10.29-26.23-27.57
		c0-17.18,10.8-27.47,26.23-27.47C148.65,11.97,159.46,22.26,159.46,39.44"/>
</g>
<polygon class="st0" points="214.81,4.81 202.8,10.92 207.75,51.47 177.87,23.63 165.58,29.89 208.15,67.66 220.34,61.45 "/>
<g>
	<path class="st0" d="M81.09,16.25L97.3,48.06l-11.37,5.79L70.85,24.24c-2.85-5.59-6.82-6.81-11.67-4.33
		c-5.41,2.76-7.39,7.92-3.33,15.9l13.5,26.49l-11.37,5.79L42.89,38.48c-2.85-5.59-7-6.71-11.77-4.28
		c-5.32,2.71-7.26,7.97-3.29,15.76l13.54,26.58l-11.37,5.79L5.97,35.13l11.18-5.7l3.55,6.97c-0.45-4.51,1.25-10.46,8.4-14.1
		c6.32-3.22,12.45-2.76,17.17,1.07c0.1-4.33,1.44-10.55,9.96-14.89C66.41,3.29,75.91,6.07,81.09,16.25"/>
</g>
<path class="st1" d="M373.4,26.88v26.66 M356.84,47.24h33.11 M331.34,49.47h-13.33c-0.57,0-1.04-0.47-1.04-1.04v-1.88
	c0-0.57,0.46-1.04,1.04-1.04h13.33c0.57,0,1.04,0.47,1.04,1.04v1.88C332.37,49.01,331.91,49.47,331.34,49.47z M322.28,49.47
	c0,2.84-2.5,3.93-4.3,4.39c-0.96,0.24-5.9,1.24-3.74,6.32c3.96,0.11,4.85,0.11,6.5,0.66c-0.66,1.77-0.8,2.68-0.8,4.12
	c0,2.65,3.16,4.41,4.73,5.41c1.58-1,4.74-2.76,4.74-5.41c0-1.44-0.14-2.35-0.8-4.12c1.65-0.55,2.53-0.55,6.5-0.66
	c2.16-5.08-2.78-6.08-3.74-6.32c-1.77-0.44-4.29-1.55-4.29-4.39 M328.13,45.56c0-8.66,4.05-13.99,10.3-13.99
	c6.26,0,6.26,4.07,6.26,5.04c0,3.41-3.69,6.92-1.14,9.49c-6.45,0-5.09-5.13-9.16-5.13c-1.54,0-4.37,1.45-4.37,4.6 M321.28,45.56
	c0-8.66-4.04-13.99-10.3-13.99c-6.26,0-6.26,4.07-6.26,5.04c0,3.41,3.7,6.92,1.14,9.49c6.45,0,5.08-5.13,9.16-5.13
	c1.54,0,4.37,1.45,4.37,4.6 M323.38,45.51c0-14.45-5.98-14.89-5.98-21.17c0-6.28,7.27-13.27,7.27-13.27s7.27,6.99,7.27,13.27
	c0,6.28-5.98,6.73-5.98,21.17 M377,66.93c0,0-3.59-4.7-3.59-8.63c0-4.14-0.11-5.38-1.12-6.39c-1.01-1.01-2.93-0.57-7.32,3.85
	c-4.4,4.42-8.47,6.68-10.93,4.2c-2.46-2.48-0.11-8.3-0.11-12.18c0-3.88-2.57-9.66-0.45-11.79c1.55-1.56,5.6-0.28,8.28,2.42
	c2.68,2.69,6.65,7.33,8.47,5.49c1.82-1.83-3-6.9-3.96-7.87c-0.97-0.97-5.79-6.46-5.79-9.02c0-0.83,0.13-5.31,3.88-5.31
	c3.75,0,6.62,0.75,9.21,0.75c2.58,0,5.45-0.75,9.2-0.75c3.75,0,3.88,4.49,3.88,5.31c0,2.56-4.82,8.05-5.79,9.02
	c-0.96,0.97-5.79,6.03-3.96,7.87c1.82,1.83,5.79-2.8,8.47-5.49c2.68-2.7,6.72-3.98,8.28-2.42c2.12,2.13-0.45,7.91-0.45,11.79
	c0,3.88,2.36,9.7-0.11,12.18c-2.46,2.48-6.54,0.22-10.93-4.2c-4.39-4.42-6.32-4.87-7.32-3.85c-1.01,1.01-1.12,2.25-1.12,6.39
	c0,3.93,3.43,8.5,3.43,8.5"/>
</svg>
