<?xml version="1.0" standalone="no"?>
<!DOCTYPE svg PUBLIC "-//W3C//DTD SVG 20010904//EN"
 "http://www.w3.org/TR/2001/REC-SVG-20010904/DTD/svg10.dtd">
<svg version="1.0" xmlns="http://www.w3.org/2000/svg"
 width="1432.000000pt" height="1432.000000pt" viewBox="0 0 1432.000000 1432.000000"
 preserveAspectRatio="xMidYMid meet">
<metadata>
Created by potrace 1.11, written by Peter Selinger 2001-2013
</metadata>
<g transform="translate(0.000000,1432.000000) scale(0.100000,-0.100000)"
fill="#000000" stroke="none">
<path d="M5898 10285 c-2 -3 -25 -7 -51 -9 -26 -3 -64 -8 -85 -12 -20 -4 -45
-8 -55 -10 -10 -2 -26 -5 -35 -8 -9 -3 -28 -7 -42 -10 -36 -7 -225 -75 -247
-89 -6 -4 -38 -21 -70 -38 -55 -29 -149 -90 -195 -126 -45 -37 -188 -185 -205
-214 -10 -16 -21 -29 -25 -29 -4 0 -8 -6 -8 -14 0 -8 -4 -16 -9 -18 -12 -4
-121 -195 -121 -212 0 -7 -4 -16 -8 -21 -21 -23 -92 -264 -108 -359 -3 -21 -7
-47 -9 -57 -17 -89 -23 -355 -11 -494 9 -114 16 -156 50 -305 25 -111 164
-430 187 -430 5 0 9 -5 9 -11 0 -9 14 -30 70 -103 63 -83 240 -237 340 -296
137 -80 331 -149 505 -180 153 -27 413 -29 565 -5 14 2 41 7 60 10 19 3 75 17
123 31 305 86 542 245 716 479 83 113 119 176 181 320 18 40 68 211 74 250 4
22 8 47 11 55 35 120 41 538 10 691 -2 14 -6 39 -9 55 -6 50 -48 206 -71 264
-16 43 -28 73 -30 80 -1 5 -51 103 -77 150 -20 37 -98 150 -127 184 -54 62
-154 157 -214 201 -34 25 -68 50 -75 56 -7 5 -59 34 -116 63 -122 62 -263 111
-371 130 -16 3 -41 8 -55 11 -14 3 -43 8 -65 11 -47 7 -401 15 -407 9z m364
-678 c37 -9 76 -21 85 -26 10 -5 36 -17 58 -27 122 -52 242 -174 305 -310 43
-92 65 -165 87 -289 15 -87 8 -387 -11 -470 -21 -87 -42 -156 -57 -187 -11
-21 -19 -44 -19 -52 0 -8 -4 -16 -8 -18 -4 -1 -20 -23 -34 -48 -69 -119 -219
-233 -353 -269 -64 -17 -164 -33 -195 -32 -8 1 -28 1 -45 0 -45 0 -46 0 -100
6 -162 19 -325 98 -423 204 -144 156 -216 380 -216 671 0 87 11 227 19 240 2
3 6 21 9 40 9 58 14 73 30 112 9 21 16 40 15 43 0 3 12 32 27 63 89 184 253
311 453 352 106 22 277 20 373 -3z"/>
<path d="M10774 9754 c-16 -9 -119 -61 -229 -117 -110 -55 -203 -105 -206
-110 -3 -5 -9 -8 -13 -7 -10 2 -170 -81 -178 -93 -4 -6 -5 -14 -3 -17 2 -4 6
-31 9 -61 3 -30 7 -63 9 -74 3 -11 8 -51 11 -90 4 -38 8 -81 11 -95 2 -14 7
-52 11 -85 3 -33 8 -71 10 -85 13 -101 16 -128 19 -150 2 -14 7 -52 10 -85 3
-33 7 -71 10 -85 3 -14 7 -49 10 -78 3 -29 7 -67 10 -85 2 -18 7 -54 10 -82 4
-27 8 -64 10 -80 2 -17 7 -55 10 -85 3 -30 8 -68 10 -85 3 -16 8 -50 10 -75 2
-25 6 -56 9 -70 2 -14 7 -54 11 -90 3 -36 8 -74 10 -85 2 -11 7 -47 10 -80 4
-33 8 -75 11 -92 2 -18 6 -48 8 -65 3 -18 7 -58 11 -88 3 -30 7 -68 9 -85 2
-16 7 -55 11 -85 3 -30 8 -71 11 -90 l5 -34 -32 29 c-17 17 -48 46 -68 65 -20
19 -88 82 -150 140 -63 58 -133 123 -156 145 -24 22 -96 90 -161 150 -65 61
-130 121 -144 135 -15 14 -82 77 -150 140 -68 63 -141 131 -161 150 -32 30
-171 159 -273 254 -40 37 -211 196 -301 280 -53 50 -75 64 -90 59 -11 -3 -22
-9 -25 -13 -3 -4 -22 -12 -42 -19 -20 -7 -42 -19 -48 -27 -7 -7 -18 -14 -24
-14 -6 0 -24 -7 -41 -16 -16 -9 -127 -66 -245 -126 -118 -61 -220 -115 -227
-120 -15 -12 -27 0 206 -203 19 -16 42 -37 50 -45 9 -8 54 -49 101 -90 102
-89 146 -128 174 -155 12 -11 55 -49 96 -85 41 -35 77 -67 80 -70 3 -4 46 -42
95 -85 50 -44 95 -84 101 -90 6 -5 39 -35 74 -65 74 -64 76 -67 165 -145 37
-33 80 -72 96 -86 15 -14 58 -52 95 -85 37 -32 72 -64 78 -69 6 -6 47 -42 91
-80 44 -39 92 -81 106 -95 14 -14 50 -45 79 -70 48 -42 102 -89 175 -155 17
-15 57 -50 89 -79 32 -28 74 -66 92 -84 19 -18 34 -31 34 -28 0 2 22 -17 49
-43 52 -48 144 -130 197 -175 18 -14 36 -26 42 -26 6 0 93 43 194 95 178 91
288 146 298 147 3 0 16 8 30 17 14 9 53 30 88 46 l63 30 -6 85 c-4 47 -8 96
-10 110 -4 29 -17 157 -21 215 -1 22 -5 63 -8 90 -11 98 -16 151 -22 220 -3
39 -7 81 -10 95 -2 14 -7 58 -9 99 -3 40 -7 85 -9 100 -3 14 -8 60 -11 101 -4
41 -9 93 -11 115 -3 22 -7 67 -9 100 -3 33 -7 78 -9 100 -3 22 -7 65 -10 95
-4 30 -9 78 -11 105 -3 28 -8 73 -10 100 -5 53 -12 128 -20 210 -3 28 -7 74
-10 102 -3 29 -7 67 -9 85 -3 18 -7 69 -11 113 -3 44 -8 98 -11 120 -3 22 -7
63 -9 90 -2 28 -6 70 -9 95 -5 42 -9 79 -21 210 -9 100 -22 229 -31 306 -3 27
-5 59 -5 71 1 30 -10 35 -45 17z"/>
<path d="M12897 9324 c-1 -2 -34 -8 -72 -14 -101 -16 -113 -18 -138 -26 -12
-4 -29 -8 -37 -9 -8 0 -35 -7 -60 -15 -25 -7 -49 -14 -55 -16 -69 -15 -285
-127 -363 -188 -61 -48 -190 -187 -232 -252 -81 -124 -152 -294 -174 -414 -2
-14 -5 -25 -6 -25 -1 0 -3 -12 -5 -27 -3 -23 0 -28 18 -29 29 -1 605 -1 633 0
17 1 26 14 44 64 93 260 283 373 620 370 248 -2 406 -75 462 -213 17 -42 16
-153 -2 -195 -7 -16 -14 -32 -14 -35 -3 -17 -58 -72 -98 -99 -47 -31 -149 -63
-243 -75 -27 -4 -90 -13 -140 -21 -49 -7 -110 -16 -135 -19 -25 -3 -54 -8 -65
-10 -11 -2 -47 -7 -80 -11 -32 -3 -62 -8 -65 -10 -3 -2 -30 -6 -60 -9 -57 -6
-70 -9 -155 -26 -27 -6 -59 -12 -70 -14 -11 -2 -62 -18 -113 -35 -172 -57
-290 -127 -397 -235 -156 -156 -223 -324 -229 -573 -6 -208 34 -364 130 -515
37 -57 129 -158 175 -193 79 -58 175 -107 271 -139 94 -31 111 -34 253 -52 90
-12 248 -7 343 10 96 17 281 80 294 100 4 6 8 7 8 2 0 -4 15 3 34 18 19 14 38
26 42 26 15 0 150 109 200 162 28 29 68 77 88 106 21 28 39 52 41 52 2 0 3
-82 4 -182 0 -101 0 -193 0 -206 1 -23 37 -45 55 -34 14 8 76 8 76 0 0 -4 6
-5 13 -3 20 8 127 11 127 3 0 -4 12 -3 28 1 15 5 37 5 49 0 12 -4 25 -4 28 0
3 5 21 5 40 1 21 -5 35 -4 35 2 0 5 5 6 11 3 5 -4 34 -6 62 -5 64 1 62 1 116
-1 24 -1 46 3 50 9 8 14 6 2102 -3 2182 -4 36 -12 85 -18 110 -5 25 -11 54
-14 65 -30 156 -174 361 -322 457 -86 57 -217 116 -294 132 -122 27 -159 35
-198 42 -42 6 -487 14 -493 8z m632 -1741 c-1 -76 -4 -142 -7 -148 -3 -5 -7
-23 -9 -39 -7 -61 -59 -180 -112 -256 -39 -55 -141 -152 -197 -187 -111 -70
-240 -106 -383 -106 -154 0 -238 19 -316 73 -93 64 -128 142 -128 280 1 63 22
146 46 178 58 76 140 134 242 170 40 14 106 29 165 37 82 12 135 20 225 35 39
6 86 13 105 15 47 5 105 14 160 27 25 5 54 11 65 14 11 2 45 12 75 23 30 10
59 19 63 20 5 0 7 -61 6 -136z"/>
<path d="M3249 8335 c-3 -2 -28 -6 -56 -9 -29 -2 -56 -7 -61 -10 -5 -3 -24 -8
-42 -11 -43 -8 -189 -64 -270 -105 -110 -55 -228 -139 -309 -219 -75 -75 -171
-213 -171 -245 0 -9 -4 -16 -10 -16 -5 0 -9 -3 -8 -7 1 -5 -8 -38 -19 -74 -12
-36 -24 -85 -28 -110 -3 -24 -8 -53 -10 -64 -2 -11 -4 -37 -4 -58 l-1 -38 -58
40 c-32 21 -80 49 -107 61 -28 12 -59 26 -70 31 -11 5 -58 17 -105 27 -158 34
-373 10 -525 -59 -27 -12 -52 -23 -55 -24 -19 -5 -123 -63 -163 -91 -230 -164
-352 -389 -349 -643 1 -35 0 -62 -2 -60 -2 2 -43 83 -91 179 -49 96 -93 180
-97 186 -6 9 -33 0 -91 -31 -45 -23 -181 -93 -302 -154 -121 -62 -223 -116
-227 -119 -4 -4 15 -52 43 -107 124 -244 190 -369 200 -382 6 -7 9 -13 5 -13
-3 0 9 -28 28 -62 18 -35 98 -189 176 -343 78 -154 147 -286 152 -292 6 -7 7
-13 3 -13 -4 0 -2 -6 4 -14 6 -7 55 -100 110 -207 82 -163 356 -701 393 -772
13 -27 10 -20 95 -187 37 -74 71 -136 76 -138 4 -2 7 -10 7 -17 0 -14 39 -85
46 -85 11 0 289 145 292 152 2 4 9 8 15 8 10 0 278 131 315 154 8 5 -26 82
-117 260 -141 276 -146 286 -163 319 -6 12 -70 137 -141 277 -251 493 -384
759 -385 772 0 7 -10 40 -21 72 -41 116 -44 251 -10 360 12 39 28 78 36 87 7
8 13 20 13 25 0 10 79 95 121 129 86 72 225 126 334 131 154 6 271 -60 376
-213 16 -23 221 -424 455 -890 235 -466 428 -849 429 -851 3 -3 184 85 283
138 28 15 52 26 52 25 0 -2 48 23 108 54 59 31 126 65 149 76 24 11 43 24 43
28 0 8 -120 245 -435 862 -120 234 -354 701 -366 730 -41 98 -60 188 -64 304
-3 93 14 166 59 248 30 55 118 149 147 158 11 4 19 10 19 14 0 14 163 90 225
104 115 27 219 8 310 -54 85 -58 144 -139 236 -324 35 -71 66 -132 69 -135 3
-3 43 -81 90 -175 47 -93 87 -172 90 -175 3 -3 88 -169 189 -370 244 -484 330
-652 341 -664 4 -6 9 -14 9 -18 5 -32 13 -37 34 -24 12 8 151 79 308 158 157
80 290 148 297 152 7 4 -30 87 -115 254 -249 488 -552 1084 -671 1318 -45 89
-82 167 -82 173 0 6 -4 11 -10 11 -5 0 -10 5 -10 11 0 6 -9 23 -20 39 -11 15
-17 29 -14 32 2 3 -2 11 -11 18 -8 7 -15 17 -15 22 0 10 -35 61 -67 98 -13 13
-23 28 -23 31 0 8 -100 110 -147 150 -42 37 -128 91 -194 122 -105 49 -194 68
-335 72 -72 2 -133 2 -135 0z"/>
<path d="M14157 5623 c-13 -21 -38 -60 -56 -87 -17 -28 -31 -52 -31 -55 0 -4
18 -6 40 -5 30 0 45 7 66 30 14 16 40 43 57 61 l30 32 -24 21 c-51 43 -57 43
-82 3z"/>
<path d="M7568 5598 c-116 -136 -164 -236 -162 -339 1 -58 7 -75 52 -160 52
-96 93 -204 91 -243 0 -13 -5 -5 -13 19 -29 90 -75 155 -137 192 -101 59 -257
41 -302 -36 -31 -53 -28 -115 11 -218 25 -65 24 -75 -14 -114 l-29 -31 65 4
c79 5 127 27 160 74 38 52 67 65 105 47 32 -15 64 -53 45 -53 -25 0 -50 -41
-50 -84 0 -54 16 -69 84 -76 l51 -5 -23 -21 c-12 -11 -46 -28 -75 -37 -54 -17
-116 -67 -119 -96 -9 -104 0 -121 69 -122 29 -1 58 -3 63 -4 6 -1 16 -3 24 -4
10 -1 12 -9 6 -34 -17 -80 12 -140 96 -198 42 -29 48 -30 72 -18 37 19 122
104 123 123 1 9 2 26 3 39 1 12 -1 37 -5 55 -5 24 -3 32 7 33 8 1 19 3 24 4 6
1 34 3 64 4 60 1 68 10 72 81 2 60 -52 123 -116 135 -41 8 -87 33 -94 52 -4
10 8 13 44 13 40 0 52 4 64 23 30 47 19 122 -20 131 -21 6 -22 9 -12 25 17 28
69 50 94 41 11 -5 36 -27 54 -50 42 -53 98 -79 168 -80 28 0 52 2 52 5 0 3
-11 17 -25 31 -29 29 -29 50 3 130 63 159 3 265 -151 265 -87 0 -146 -22 -196
-73 -38 -38 -85 -132 -100 -198 l-10 -45 5 56 c6 83 45 184 114 294 20 33 35
102 32 151 -2 43 -29 120 -58 166 -13 20 -24 42 -24 48 0 5 -3 10 -7 11 -5 0
-28 27 -53 59 -67 87 -71 88 -122 28z m114 -109 c51 -64 91 -159 91 -215 0
-56 -28 -144 -45 -144 -6 0 -9 -3 -6 -6 4 -3 -5 -22 -18 -42 -14 -19 -27 -47
-31 -61 -3 -14 -10 -31 -14 -37 -5 -6 -10 -19 -12 -30 -2 -10 -7 -30 -11 -44
-7 -26 -13 -82 -15 -139 -1 -47 -15 -29 -17 22 -4 84 -39 220 -66 255 -6 6 -7
12 -3 12 4 0 1 7 -6 16 -37 45 -71 120 -77 171 -8 75 51 206 132 291 l31 33
20 -24 c11 -13 32 -39 47 -58z m-334 -461 c49 -24 87 -65 115 -128 23 -50 38
-130 25 -130 -4 0 -8 4 -8 10 0 19 -52 60 -91 70 -35 10 -46 8 -84 -11 -25
-12 -47 -30 -50 -40 -7 -20 -61 -69 -76 -69 -5 0 -9 16 -9 35 0 20 -9 55 -21
78 -39 81 -32 159 18 189 36 21 130 19 181 -4z m688 11 c18 -5 40 -19 49 -29
25 -28 23 -104 -5 -164 -11 -26 -23 -61 -25 -78 -2 -16 -6 -32 -8 -35 -9 -9
-48 22 -68 54 -54 86 -169 89 -226 5 l-22 -34 3 34 c2 18 6 40 9 48 3 8 10 30
16 49 17 54 72 118 117 138 49 21 116 27 160 12z m-259 -362 c6 -4 10 -15 9
-25 -3 -15 -19 -17 -177 -17 -184 0 -177 -2 -170 43 1 9 322 9 338 -1z m-112
-126 c21 -41 58 -68 121 -86 58 -17 88 -48 82 -86 -3 -20 -10 -24 -58 -26 -30
-2 -72 -8 -92 -14 l-37 -9 13 -48 c7 -26 14 -59 14 -73 2 -28 -34 -74 -79
-103 -27 -17 -27 -17 -72 28 -42 41 -45 48 -42 88 1 24 8 56 14 71 6 16 11 30
11 32 0 9 -72 23 -145 28 -35 3 -40 6 -43 30 -4 30 38 77 67 77 10 0 40 11 68
25 36 18 56 36 68 60 14 31 20 35 55 35 33 0 42 -4 55 -29z"/>
<path d="M12569 5565 c-2 -2 -22 -5 -44 -6 -51 -4 -125 -49 -166 -100 -17 -21
-28 -39 -24 -39 4 0 3 -6 -3 -13 -14 -16 -38 -122 -36 -158 4 -96 32 -167 87
-218 65 -62 105 -76 217 -75 75 0 90 3 127 27 54 34 87 80 106 145 15 50 15
52 -4 53 -69 3 -89 1 -90 -7 -1 -5 -10 -26 -21 -47 -46 -91 -187 -97 -261 -13
-36 40 -49 88 -45 162 3 59 8 78 33 114 40 58 90 77 184 71 23 -1 78 -49 98
-85 8 -14 23 -19 62 -20 59 -1 62 5 32 69 -39 84 -112 135 -202 141 -26 1 -49
1 -50 -1z"/>
<path d="M9957 5552 c-14 -3 -17 -16 -17 -65 -2 -365 -1 -510 4 -515 10 -10
278 -9 319 1 49 12 114 78 123 123 13 73 -17 139 -79 171 -30 15 -30 16 -11
24 30 11 66 64 69 102 5 68 -47 141 -110 152 -35 6 -274 12 -298 7z m277 -121
c27 -29 27 -58 2 -88 -22 -25 -29 -27 -102 -27 l-79 0 -3 53 c-5 80 -4 81 86
81 64 0 82 -3 96 -19z m3 -215 c28 -9 54 -73 41 -101 -17 -37 -48 -48 -140
-50 l-87 -1 1 75 c0 42 2 78 4 81 4 8 155 5 181 -4z"/>
<path d="M11029 5540 c-4 -48 -3 -570 1 -571 3 -1 89 -2 193 -3 l187 -1 0 51
0 52 -112 0 c-62 0 -124 1 -138 1 l-26 1 1 230 c0 126 -2 235 -5 242 -8 19
-100 18 -101 -2z"/>
<path d="M13505 5550 l-50 -5 0 -289 0 -290 48 -1 c35 -1 51 4 56 15 4 8 6 63
5 122 l-2 107 131 3 131 3 1 48 c2 54 18 49 -151 50 l-111 0 0 68 -1 68 142 3
141 3 0 48 0 49 -145 1 c-80 1 -167 0 -195 -3z"/>
<path d="M11648 5404 c-3 -2 -14 -5 -26 -7 -47 -7 -122 -85 -122 -127 0 -22
88 -22 95 0 10 30 63 53 110 46 45 -7 59 -23 48 -53 -9 -26 -21 -31 -83 -39
-69 -8 -70 -9 -100 -18 -26 -8 -79 -60 -81 -80 -10 -82 8 -128 63 -155 59 -29
160 -10 187 36 6 10 11 15 12 11 1 -5 3 -12 4 -18 1 -5 3 -16 4 -22 1 -9 18
-13 49 -13 l47 0 1 172 c2 190 -5 216 -64 247 -27 14 -136 29 -144 20z m104
-269 c-8 -70 -78 -110 -144 -81 -19 8 -24 51 -10 73 8 13 101 35 114 27 3 -2
10 0 13 6 12 20 30 3 27 -25z"/>
<path d="M13090 5403 c-51 -13 -100 -50 -120 -90 -12 -25 -20 -47 -17 -50 3
-3 22 -7 41 -9 30 -2 41 3 65 28 56 60 172 38 143 -27 -8 -18 -20 -25 -39 -26
-16 0 -35 -2 -43 -4 -8 -1 -32 -6 -53 -9 -63 -10 -93 -31 -120 -82 -19 -36 -9
-104 19 -135 52 -58 158 -56 220 2 l24 22 0 -26 c0 -28 1 -28 65 -30 l30 -1 0
182 0 182 -30 30 c-17 17 -42 33 -55 36 -34 7 -112 11 -130 7z m117 -262 c-7
-42 -24 -69 -55 -85 -30 -15 -76 -13 -98 5 -18 15 -18 53 1 69 12 10 88 30
148 39 5 0 6 -12 4 -28z"/>
<path d="M14077 5404 c-2 -2 -12 -5 -23 -7 -24 -4 -72 -34 -99 -61 -39 -41
-50 -76 -50 -162 0 -75 3 -86 30 -126 71 -101 227 -121 312 -39 21 20 57 79
51 82 -2 1 -21 2 -43 3 -29 2 -49 -4 -72 -22 -31 -23 -70 -30 -118 -19 -22 4
-55 45 -59 73 -3 18 6 19 148 24 l151 5 0 40 c1 116 -72 198 -185 209 -21 2
-41 2 -43 0z m103 -114 c11 -13 20 -31 20 -42 0 -16 -9 -18 -95 -18 -85 0 -95
2 -95 18 0 19 34 56 60 64 35 12 90 1 110 -22z"/>
<path d="M10513 5391 c-10 -7 -9 -296 2 -333 7 -29 66 -87 88 -89 7 0 23 -3
37 -5 41 -8 86 5 114 33 l26 26 0 -27 c0 -14 6 -27 13 -27 14 -2 79 -1 87 0 3
1 5 97 4 213 l0 213 -52 3 c-60 3 -55 17 -53 -141 2 -135 -21 -191 -82 -201
-27 -4 -72 18 -81 39 -3 9 -6 81 -6 159 l0 143 -44 0 c-25 0 -48 -3 -53 -6z"/>
<path d="M8622 5349 c-54 -11 -81 -47 -97 -127 -10 -56 57 -174 170 -297 30
-33 55 -63 55 -67 0 -4 7 -13 15 -22 8 -8 18 -29 22 -46 l6 -32 -32 16 c-17 9
-62 47 -99 83 -86 85 -135 120 -186 134 -66 18 -96 14 -127 -20 -15 -17 -26
-31 -23 -31 3 0 0 -9 -6 -20 -6 -11 -7 -20 -3 -20 4 0 8 -17 9 -38 1 -36 6
-71 19 -122 10 -38 8 -128 -4 -200 -27 -163 -2 -241 83 -254 39 -6 116 11 116
26 0 4 6 8 13 8 12 0 44 26 138 113 80 74 118 99 139 92 22 -7 22 -6 26 -88 5
-107 39 -213 90 -282 14 -19 15 -19 37 3 15 15 18 25 11 30 -31 20 -77 162
-76 237 1 41 10 87 20 97 17 17 68 -12 138 -79 99 -95 123 -114 177 -139 121
-56 201 -3 199 131 -1 33 -4 71 -7 85 -11 46 -13 165 -4 215 27 142 29 181 11
218 -43 88 -181 57 -300 -67 -78 -82 -128 -120 -147 -112 -14 5 -13 10 4 43
10 21 45 67 76 102 31 35 61 69 66 75 48 59 61 78 83 121 51 95 21 211 -61
234 -15 4 -62 5 -103 2 -94 -7 -264 -7 -350 0 -36 3 -80 2 -98 -2z m273 -52
c66 0 149 2 185 5 93 8 124 -12 129 -83 2 -39 -41 -139 -61 -139 -4 0 -8 -6
-8 -12 0 -7 -24 -38 -53 -69 -69 -75 -92 -102 -101 -119 -4 -8 -13 -26 -21
-40 -8 -14 -15 -41 -15 -61 0 -31 5 -39 31 -51 28 -14 34 -14 70 4 21 10 76
55 121 100 82 80 148 121 196 121 46 0 56 -38 37 -148 -3 -22 -10 -62 -14 -89
-9 -53 -8 -107 5 -207 7 -59 8 -87 5 -124 -2 -25 -42 -55 -70 -51 -42 7 -71
18 -71 27 0 5 -6 9 -12 9 -7 0 -29 14 -48 32 -19 18 -62 57 -96 88 -52 48
-127 96 -144 93 -3 0 -14 -4 -26 -7 -18 -5 -20 -2 -20 26 1 35 1 35 76 37 35
1 162 3 178 2 17 -1 92 -1 125 0 22 0 27 5 27 27 l0 27 -202 0 -203 0 -2 240
c0 132 -1 245 -2 251 -1 6 -12 12 -27 12 -19 0 -25 -5 -23 -22 0 -11 1 -125 0
-252 l-1 -230 -196 -1 c-156 0 -198 -3 -205 -14 -22 -35 -7 -39 146 -39 106 1
173 0 190 -2 6 0 15 1 20 2 31 8 45 -1 45 -29 0 -26 -4 -30 -28 -29 -41 1 -82
-24 -161 -98 -136 -127 -195 -161 -248 -139 -22 9 -33 22 -38 45 -6 29 -1 110
11 161 3 13 6 53 7 89 1 61 -3 92 -23 199 -9 47 -5 90 10 105 32 32 128 -13
219 -103 121 -121 172 -144 218 -101 16 14 20 27 16 52 -6 40 -43 106 -81 145
-63 63 -139 162 -161 205 -24 50 -23 99 1 138 16 25 28 27 108 22 36 -3 119
-5 185 -5z"/>
<path d="M10113 4637 c-126 -39 -194 -133 -199 -278 -3 -87 12 -148 51 -208
29 -44 85 -91 108 -91 7 0 17 -3 21 -7 21 -21 140 -26 194 -9 87 29 159 113
165 191 2 29 1 30 -43 30 -56 1 -70 -3 -70 -21 0 -52 -66 -106 -132 -106 -107
1 -171 62 -184 178 -8 66 18 153 54 185 61 53 157 59 217 14 19 -15 36 -31 36
-36 1 -5 2 -14 3 -19 2 -19 24 -25 71 -22 46 4 46 4 39 36 -16 74 -82 145
-157 165 -45 13 -129 11 -174 -2z"/>
<path d="M11064 4631 c-2 -2 -4 -134 -4 -293 l0 -288 55 0 55 0 0 119 c0 86 3
120 13 123 6 2 65 3 130 3 l117 -1 0 51 0 50 -127 0 -128 0 -3 68 -3 67 141 0
c138 0 140 0 141 23 0 12 2 34 3 50 1 15 -3 27 -9 28 -32 4 -377 3 -381 0z"/>
<path d="M12540 4628 c-90 -22 -150 -80 -165 -161 l-7 -35 47 -4 c47 -3 47 -3
66 38 26 55 59 71 132 65 28 -2 57 -38 57 -72 0 -53 -17 -74 -160 -199 -140
-122 -130 -109 -130 -162 l0 -48 210 0 210 0 0 39 c0 22 -5 43 -12 47 -7 4
-70 7 -141 7 l-130 -2 44 40 c24 22 57 50 72 62 29 22 93 85 112 109 26 33 41
94 33 137 -8 46 -45 104 -80 122 -31 17 -119 26 -158 17z"/>
<path d="M13078 4634 c-2 -1 -17 -4 -35 -6 -18 -2 -50 -17 -72 -33 -56 -42
-83 -119 -86 -245 -2 -86 16 -194 35 -210 3 -3 13 -17 23 -32 18 -29 62 -56
106 -65 118 -25 217 58 237 198 25 178 -23 338 -111 374 -24 9 -93 23 -97 19z
m69 -131 c38 -47 48 -198 21 -293 -11 -36 -21 -49 -50 -63 -35 -17 -38 -17
-63 -1 -46 30 -59 69 -61 184 -2 87 1 112 17 146 33 68 94 80 136 27z"/>
<path d="M13505 4616 c-47 -21 -82 -57 -104 -106 -32 -70 -29 -78 29 -82 50
-3 51 -3 60 32 22 83 154 101 185 26 11 -26 11 -36 -1 -65 -15 -35 -19 -40
-125 -133 -104 -92 -113 -99 -136 -118 -17 -13 -24 -31 -27 -69 l-4 -51 213 0
213 0 -2 33 c-1 17 2 38 7 45 10 13 -3 14 -188 14 l-100 -1 30 27 c17 15 55
47 85 72 84 70 107 95 130 140 24 46 28 106 11 138 -7 12 -8 22 -4 22 15 0
-54 63 -84 76 -41 18 -149 17 -188 0z"/>
<path d="M14062 4599 c-20 -15 -57 -33 -81 -42 -41 -13 -45 -17 -46 -50 -1
-20 1 -41 6 -48 7 -12 42 -9 89 9 14 5 29 10 35 11 10 1 15 -328 5 -330 -3 -1
-32 -2 -65 -4 -33 -1 -63 -3 -67 -4 -3 0 -5 -21 -5 -46 l2 -45 193 0 192 0 0
48 0 47 -67 0 -68 0 -5 240 -5 240 -38 1 c-26 0 -50 -8 -75 -27z"/>
<path d="M10670 4476 c-14 -6 -35 -18 -46 -26 -23 -16 -64 -78 -64 -96 0 -18
81 -23 94 -6 28 34 51 52 62 48 6 -2 17 -1 24 4 18 11 68 -8 75 -29 13 -42 -6
-55 -100 -66 -69 -9 -111 -24 -131 -47 -79 -89 -28 -216 89 -220 43 -1 75 9
115 39 l32 24 0 -25 c0 -24 3 -26 50 -26 41 0 50 3 50 18 3 132 0 294 -5 319
-8 37 -36 70 -73 85 -37 15 -141 18 -172 4z m145 -257 c-8 -42 -25 -66 -59
-83 -49 -24 -106 -4 -106 38 0 37 16 49 82 62 91 18 89 18 83 -17z"/>
<path d="M11656 4477 c-52 -13 -121 -80 -135 -132 -44 -161 45 -305 189 -306
89 0 163 44 189 113 l10 28 -50 -2 c-37 -2 -55 -8 -64 -21 -9 -13 -30 -21 -60
-25 -68 -7 -109 20 -120 79 -4 22 -15 21 163 20 146 -1 136 -6 133 69 -4 131
-118 211 -255 177z m129 -103 c43 -47 29 -59 -73 -62 -84 -3 -92 -1 -92 16 0
19 34 56 60 64 39 13 83 5 105 -18z"/>
</g>
</svg>
